<svg width="19" height="19" viewBox="0 0 19 19" fill="none" xmlns="http://www.w3.org/2000/svg">
<path d="M17.2188 2.96875H14.9885C14.9491 2.96875 14.9114 2.95311 14.8835 2.92527C14.8557 2.89744 14.84 2.85968 14.84 2.82031C14.84 2.63885 14.84 2.48633 14.84 2.37203C14.8393 2.0576 14.7138 1.75632 14.4912 1.53426C14.2686 1.3122 13.967 1.1875 13.6525 1.1875V1.1875L5.34783 1.19715C5.03372 1.19774 4.73264 1.32275 4.5105 1.54483C4.28835 1.7669 4.16325 2.06794 4.16256 2.38205C4.16256 2.50191 4.16256 2.64998 4.16256 2.82031C4.16256 2.85968 4.14692 2.89744 4.11908 2.92527C4.09124 2.95311 4.05349 2.96875 4.01412 2.96875H1.78125C1.62378 2.96875 1.47276 3.03131 1.36141 3.14266C1.25006 3.25401 1.1875 3.40503 1.1875 3.5625V4.15625C1.1875 6.17982 2.30078 8.3292 4.02711 8.80791C4.07816 8.82212 4.12434 8.85004 4.16065 8.88864C4.19695 8.92723 4.222 8.97504 4.23307 9.02686C4.44719 10.0247 5.10588 10.9751 6.14086 11.7585C6.91682 12.3459 7.84232 12.779 8.67432 12.9638C8.7401 12.9785 8.7989 13.0152 8.84105 13.0678C8.8832 13.1204 8.9062 13.1858 8.90625 13.2532V16.4766C8.90625 16.5159 8.89061 16.5537 8.86277 16.5815C8.83494 16.6094 8.79718 16.625 8.75781 16.625H6.54795C6.22844 16.625 5.9542 16.8707 5.93824 17.1902C5.93437 17.2705 5.94685 17.3507 5.9749 17.426C6.00296 17.5013 6.04601 17.5702 6.10146 17.6283C6.1569 17.6865 6.22359 17.7329 6.29746 17.7645C6.37134 17.7962 6.45088 17.8125 6.53125 17.8125H12.4521C12.7716 17.8125 13.0458 17.5668 13.0618 17.2473C13.0656 17.167 13.0532 17.0868 13.0251 17.0115C12.997 16.9362 12.954 16.8673 12.8985 16.8092C12.8431 16.751 12.7764 16.7046 12.7025 16.673C12.6287 16.6413 12.5491 16.625 12.4688 16.625H10.2422C10.2028 16.625 10.1651 16.6094 10.1372 16.5815C10.1094 16.5537 10.0938 16.5159 10.0938 16.4766V13.2532C10.0938 13.1858 10.1168 13.1204 10.1589 13.0678C10.2011 13.0152 10.2599 12.9785 10.3257 12.9638C11.1577 12.7782 12.0832 12.3459 12.8591 11.7585C13.8941 10.9751 14.5528 10.0247 14.7669 9.02686C14.778 8.97504 14.803 8.92723 14.8394 8.88864C14.8757 8.85004 14.9218 8.82212 14.9729 8.80791C16.6992 8.3292 17.8125 6.17982 17.8125 4.15625V3.5625C17.8125 3.40503 17.7499 3.25401 17.6386 3.14266C17.5272 3.03131 17.3762 2.96875 17.2188 2.96875ZM4.15625 7.35582C4.15616 7.38183 4.14923 7.40736 4.13617 7.42986C4.1231 7.45235 4.10436 7.47101 4.08181 7.48398C4.05926 7.49695 4.03369 7.50376 4.00768 7.50374C3.98167 7.50371 3.95612 7.49685 3.93359 7.48385C3.55285 7.25711 3.2749 6.91348 3.11199 6.67152C2.67002 6.01506 2.40691 5.16229 2.3776 4.31025C2.37685 4.2903 2.38013 4.2704 2.38726 4.25174C2.39438 4.23308 2.4052 4.21605 2.41906 4.20168C2.43291 4.1873 2.44953 4.17586 2.46791 4.16806C2.4863 4.16025 2.50606 4.15624 2.52604 4.15625H4.01041C4.04978 4.15625 4.08753 4.17189 4.11537 4.19973C4.14321 4.22756 4.15885 4.26532 4.15885 4.30469C4.15811 5.32334 4.15625 6.48932 4.15625 7.35582ZM15.8876 6.67152C15.7247 6.91348 15.4471 7.25711 15.0664 7.48385C15.0439 7.49687 15.0183 7.50373 14.9922 7.50373C14.9662 7.50374 14.9406 7.4969 14.918 7.48389C14.8955 7.47088 14.8767 7.45216 14.8637 7.42961C14.8507 7.40707 14.8438 7.38149 14.8438 7.35545C14.8438 6.37168 14.8438 5.25395 14.8419 4.30469C14.8419 4.26532 14.8575 4.22756 14.8854 4.19973C14.9132 4.17189 14.951 4.15625 14.9903 4.15625H16.4747C16.4947 4.15624 16.5144 4.16025 16.5328 4.16806C16.5512 4.17586 16.5678 4.1873 16.5817 4.20168C16.5955 4.21605 16.6064 4.23308 16.6135 4.25174C16.6206 4.2704 16.6239 4.2903 16.6231 4.31025C16.5938 5.16229 16.33 6.01506 15.888 6.67152H15.8876Z" fill="#6080FF"/>
</svg>
